<?xml version="1.0" encoding="UTF-8" standalone="no"?>
<!-- Created with Inkscape (http://www.inkscape.org/) -->

<svg
   version="1.1"
   id="svg55"
   width="1023.9999"
   height="582.97955"
   viewBox="0 0 1023.9999 582.97955"
   xmlns="http://www.w3.org/2000/svg"
   xmlns:svg="http://www.w3.org/2000/svg">
  <defs
     id="defs59" />
  <g
     id="g61"
     transform="translate(-294.00641,-207.27631)">
    <path
       id="path398"
       style="fill:#f2f2f2;stroke-width:3.08014"
       d="M 540.34723,788.39081 C 417.99669,766.30704 324.2708,678.43679 298.8797,562.00923 c -5.88443,-26.98227 -6.60651,-97.97612 -1.25365,-123.25661 19.28783,-91.09248 70.97558,-158.32788 152.90498,-198.89863 70.69847,-35.00927 159.07374,-42.26144 237.92901,-19.52469 34.97924,10.08575 52.89745,18.40185 84.52057,39.22735 55.9933,36.87445 99.4607,95.48782 116.3303,156.86494 2.2117,8.04687 4.8807,14.6028 5.9311,14.56877 1.0503,-0.0342 20.0257,-42.65555 42.1675,-94.7144 l 40.2577,-94.65249 57.08079,-0.83632 57.0808,-0.83632 25.424,57.81897 c 26.7446,60.82238 34.7051,78.67233 71.8164,161.0364 12.6027,27.97029 23.8335,53.75213 24.9574,57.29307 1.8152,5.71933 -0.7619,7.5465 -23.0854,16.36797 -37.617,14.86486 -85.8676,23.213 -85.8902,14.86043 -0.01,-2.1176 -13.2571,-36.4227 -29.4475,-76.23354 -16.1904,-39.81085 -31.5627,-78.27414 -34.1607,-85.47397 -2.598,-7.19984 -5.6329,-13.068 -6.7442,-13.04037 -2.1431,0.0533 -12.9125,25.37095 -45.83549,107.75476 -11.1706,27.9523 -20.5693,51.18702 -20.8861,51.63272 -0.3168,0.4457 -11.5308,-4.19676 -24.9201,-10.31657 -57.5746,-26.3156 -67.4423,-29.16621 -113.505,-32.78966 l -43.3771,-3.41219 -5.2943,-26.99742 c -9.4167,-48.01826 -31.10622,-85.71089 -64.84734,-112.69353 -27.58182,-22.05709 -37.51805,-27.34351 -67.99332,-36.17489 -105.3181,-30.52 -212.40007,33.19682 -237.78735,141.49019 -10.0364,42.81189 -1.71281,102.71885 20.35152,146.47463 22.58314,44.78463 71.54759,82.82384 123.11181,95.64232 23.46443,5.83308 74.05092,4.94988 97.0245,-1.69396 41.88958,-12.11426 76.77287,-36.48885 103.18479,-72.10002 15.04231,-20.28154 15.32553,-20.38346 44.79249,-16.11832 15.4198,2.2319 25.3374,6.84281 57.8363,26.88931 l 39.2252,24.19548 -27.1442,26.18121 c -49.858,48.08926 -110.28362,82.20618 -175.61333,99.15298 -31.74858,8.23571 -42.2729,9.49186 -86.94332,10.37743 -27.9523,0.55412 -57.53125,-0.20329 -65.73103,-1.68345 z M 1183.17,742.91675 c -26.1515,-66.24649 -40.5355,-97.73405 -44.4356,-97.27271 -2.4264,0.28707 -18.2723,4.17649 -35.2131,8.64329 -50.5773,13.33581 -101.5167,10.75576 -150.30029,-7.61264 -9.8199,-3.69743 -39.6203,-19.92809 -66.2231,-36.0681 -26.6029,-16.14002 -52.5297,-31.73918 -57.6151,-34.66486 -5.8638,-3.37337 -18.8931,-5.92117 -35.6161,-6.96448 -15.7863,-0.98487 -30.42433,-3.74185 -36.47207,-6.86927 -5.55627,-2.87325 -10.39154,-4.77536 -10.74504,-4.22694 -0.35351,0.54845 -6.80807,10.69961 -14.34343,22.55816 -20.34092,32.01094 -35.68811,47.74222 -46.57647,47.74222 -15.23313,0 -21.98782,-10.4302 -32.9433,-50.86924 -13.11245,-48.40084 -15.87186,-56.94957 -18.35569,-56.86646 -1.13919,0.0382 -8.18822,14.02906 -15.66452,31.09099 -11.41338,26.0468 -15.21089,31.79302 -23.68011,35.83174 -9.223,4.39813 -10.7566,4.37118 -17.90777,-0.31442 -4.30151,-2.81849 -14.9184,-13.98136 -23.59306,-24.80643 l -15.77212,-19.68196 -25.11019,14.50618 c -13.81059,7.97837 -28.76724,16.90453 -33.23696,19.83591 l -8.12674,5.32972 -9.58408,-15.57607 c -5.27124,-8.56686 -9.58405,-16.82001 -9.58405,-18.34037 0,-1.52036 11.43503,-9.29482 25.41118,-17.27655 13.97614,-7.98173 32.3415,-19.63058 40.81189,-25.88632 8.47039,-6.25574 17.84275,-12.28392 20.82747,-13.39595 9.06569,-3.37768 19.8785,3.96738 31.41185,21.33785 6.0316,9.08423 11.99192,16.49586 13.24517,16.47026 1.25328,-0.0246 10.55343,-20.26278 20.66705,-44.9715 22.12596,-54.05627 29.49985,-62.04169 49.06039,-53.12933 9.8803,4.50175 9.55806,3.58424 24.53094,69.84834 7.00982,31.02268 14.1312,56.39237 15.82528,56.37706 1.69408,-0.0154 10.35356,-12.22986 19.24326,-27.14351 18.30541,-30.70964 22.60067,-34.81609 36.41699,-34.81609 7.90334,0 12.03825,2.70615 21.17853,13.86064 l 11.3577,13.86065 h 46.604 46.604 l 42.1973,19.94266 c 65.8569,31.12429 123.47969,44.77672 170.56379,40.41126 30.7828,-2.85406 88.4749,-16.30966 114.8476,-26.786 12.3595,-4.90972 22.9395,-8.92678 23.5111,-8.92678 0.5716,0 4.9099,8.6629 9.6406,19.25089 4.7308,10.588 14.0697,31.03245 20.7532,45.43211 6.6834,14.39967 14.6511,32.41851 17.7059,40.04186 3.0547,7.62336 13.1133,30.51449 22.3524,50.86921 9.2389,20.3547 17.7814,40.10611 18.9829,43.89204 l 2.1848,6.88347 h -65.1383 -65.1384 z" />
  </g>
</svg>
